<svg width="21" height="21" viewBox="0 0 21 21" fill="none" xmlns="http://www.w3.org/2000/svg">
<path d="M14.9517 0.712402C17.516 0.712402 19.73 2.51223 20.1919 5.01288C20.5264 6.84456 20.0167 8.43733 18.7106 9.77525C17.755 10.7628 16.7674 11.7184 15.7959 12.69C15.4932 12.9926 15.1269 13.136 14.6968 13.0086C14.2987 12.8971 14.0597 12.6263 13.9642 12.2281C13.8845 11.9255 13.9482 11.6388 14.1394 11.3839C14.2031 11.3043 14.2827 11.2247 14.3624 11.145C15.318 10.1894 16.2578 9.24964 17.2134 8.29398C18.2487 7.24275 18.4717 5.66591 17.755 4.43948C16.6719 2.59187 14.2509 2.28924 12.7218 3.80237C11.7502 4.77396 10.7786 5.74555 9.80705 6.70121C9.40886 7.0994 8.9151 7.17904 8.46912 6.90827C7.92758 6.58972 7.78423 5.84112 8.1665 5.34736C8.19835 5.3155 8.21428 5.28365 8.24613 5.25179C9.31329 4.20056 10.3486 3.11748 11.4317 2.08218C12.4192 1.15838 13.6297 0.744258 14.9517 0.712402Z" fill="white"/>
<path d="M6.07999 20.2874C3.48378 20.2874 1.2539 18.4716 0.807924 15.971C0.48937 14.1552 0.983129 12.5625 2.27327 11.2405C3.24486 10.253 4.23238 9.26544 5.21989 8.29386C5.857 7.67268 6.82859 7.92752 7.03565 8.77169C7.11529 9.07431 7.05158 9.36101 6.86044 9.61585C6.79673 9.69549 6.71709 9.77513 6.63746 9.85477C5.69772 10.8104 4.74206 11.7502 3.80233 12.6899C2.7511 13.757 2.52811 15.318 3.24486 16.5444C4.32794 18.392 6.74895 18.6946 8.27801 17.1974C9.24959 16.2418 10.2212 15.2543 11.1928 14.2986C11.591 13.9004 12.0688 13.8208 12.5148 14.0597C13.0882 14.3782 13.2315 15.1428 12.8174 15.6365C12.7855 15.6684 12.7537 15.7002 12.7378 15.7321C11.6865 16.7833 10.6512 17.8505 9.58408 18.8698C8.58063 19.8255 7.37013 20.2555 6.07999 20.2874Z" fill="white"/>
<path d="M7.44981 14.5535C7.08347 14.5376 6.74899 14.3464 6.55786 13.9482C6.36673 13.55 6.41451 13.1837 6.68528 12.8333C6.73306 12.7696 6.79677 12.7059 6.84456 12.6422C8.78773 10.699 10.715 8.77173 12.6582 6.82855C13.0882 6.39851 13.566 6.31887 14.0279 6.57371C14.5695 6.87634 14.7288 7.60901 14.3465 8.1187C14.2828 8.19833 14.2191 8.27797 14.1394 8.34168C12.2122 10.2689 10.2849 12.1962 8.35769 14.1234C8.11877 14.3783 7.848 14.5535 7.44981 14.5535Z" fill="white"/>
</svg>
